<?xml version="1.0" encoding="iso-8859-1"?>
<!-- Generator: Adobe Illustrator 24.3.0, SVG Export Plug-In . SVG Version: 6.00 Build 0)  -->
<svg version="1.1" id="Calque_1" xmlns="http://www.w3.org/2000/svg" xmlns:xlink="http://www.w3.org/1999/xlink" x="0px" y="0px"
	 viewBox="0 0 165 1614" style="enable-background:new 0 0 165 1614;" xml:space="preserve">
<symbol  id="Orange_lumineux_2" viewBox="-13.106 -13.106 26.213 26.212">
	<g>
		<linearGradient id="SVGID_1_" gradientUnits="userSpaceOnUse" x1="0" y1="-12.106" x2="1.482582e-15" y2="12.1064">
			<stop  offset="0" style="stop-color:#EA610A"/>
			<stop  offset="0.618" style="stop-color:#F39937"/>
			<stop  offset="0.6292" style="stop-color:#F39C38"/>
			<stop  offset="0.9831" style="stop-color:#F29435"/>
		</linearGradient>
		<path style="fill:url(#SVGID_1_);" d="M12.106,0.001c0-6.685-5.421-12.107-12.106-12.107c-6.687,0-12.106,5.422-12.106,12.107
			c0,6.686,5.42,12.105,12.106,12.105C6.686,12.106,12.106,6.687,12.106,0.001z"/>
		<linearGradient id="SVGID_2_" gradientUnits="userSpaceOnUse" x1="0" y1="-12.106" x2="1.482582e-15" y2="12.1064">
			<stop  offset="0" style="stop-color:#E48418"/>
			<stop  offset="0.618" style="stop-color:#D25A15"/>
			<stop  offset="0.8278" style="stop-color:#DF801C;stop-opacity:0.4"/>
			<stop  offset="0.9831" style="stop-color:#FFFFFF;stop-opacity:0"/>
		</linearGradient>
		<path style="fill:url(#SVGID_2_);" d="M12.106,0.001c0-6.685-5.421-12.107-12.106-12.107c-6.687,0-12.106,5.422-12.106,12.107
			c0,6.686,5.42,12.105,12.106,12.105C6.686,12.106,12.106,6.687,12.106,0.001z"/>
		<linearGradient id="SVGID_3_" gradientUnits="userSpaceOnUse" x1="0" y1="12.1064" x2="1.482582e-15" y2="-12.106">
			<stop  offset="0" style="stop-color:#FFFFFF;stop-opacity:0.77"/>
			<stop  offset="0.2033" style="stop-color:#FFFFFF;stop-opacity:0.65"/>
			<stop  offset="0.3448" style="stop-color:#FFFFFF;stop-opacity:0.65"/>
			<stop  offset="0.3462" style="stop-color:#FFFFFF;stop-opacity:0.65"/>
			<stop  offset="0.511" style="stop-color:#FFFFFF;stop-opacity:0"/>
			<stop  offset="0.5168" style="stop-color:#FEF8F3;stop-opacity:0.0019"/>
			<stop  offset="0.5389" style="stop-color:#FBE2CA;stop-opacity:0.0091"/>
			<stop  offset="0.5637" style="stop-color:#F9CDA4;stop-opacity:0.0173"/>
			<stop  offset="0.5907" style="stop-color:#F7BB84;stop-opacity:0.0261"/>
			<stop  offset="0.6206" style="stop-color:#F5AC68;stop-opacity:0.0359"/>
			<stop  offset="0.6543" style="stop-color:#F3A052;stop-opacity:0.0469"/>
			<stop  offset="0.6936" style="stop-color:#F29641;stop-opacity:0.0597"/>
			<stop  offset="0.7423" style="stop-color:#F29036;stop-opacity:0.0757"/>
			<stop  offset="0.8105" style="stop-color:#F18C2F;stop-opacity:0.098"/>
			<stop  offset="1" style="stop-color:#F18B2D;stop-opacity:0.16"/>
		</linearGradient>
		<path style="opacity:0.7;fill:url(#SVGID_3_);" d="M12.106,0.001c0-6.685-5.421-12.107-12.106-12.107
			c-6.687,0-12.106,5.422-12.106,12.107c0,6.686,5.42,12.105,12.106,12.105C6.686,12.106,12.106,6.687,12.106,0.001z"/>
		<g style="opacity:0.6;">
			<path style="fill:#FFFFFF;" d="M0,10.307c5.683,0,10.307-4.623,10.307-10.306c0-5.683-4.624-10.307-10.307-10.307
				S-10.307-5.682-10.307,0.001C-10.307,5.684-5.683,10.307,0,10.307 M0,12.106c-6.687,0-12.106-5.42-12.106-12.105
				c0-6.685,5.42-12.107,12.106-12.107c6.686,0,12.106,5.422,12.106,12.107C12.106,6.687,6.686,12.106,0,12.106L0,12.106z"/>
		</g>
		<path style="fill:none;stroke:#F39C3B;stroke-width:2;stroke-miterlimit:1;" d="M12.106,0.001c0-6.685-5.421-12.107-12.106-12.107
			c-6.687,0-12.106,5.422-12.106,12.107c0,6.686,5.42,12.105,12.106,12.105C6.686,12.106,12.106,6.687,12.106,0.001z"/>
	</g>
</symbol>
<symbol  id="Ruban" viewBox="-32.023 -32.024 64.046 64.046">
	<g>
		<path style="fill:none;stroke:#000000;stroke-width:0.25;" d="M-0.423,31.897c5.294,0.068,6.396-13.715,9.156-15.153
			c3.144-1.638,15.978,4.446,19.127-1.188c2.781-4.978-8.996-12.444-9.014-15.586c-0.018-3.272,11.56-11.116,8.799-15.914
			C24.866-20.771,12.278-14.658,9.2-16.38c-2.961-1.654-4.094-15.569-9.456-15.518C-5.503-31.85-6.287-17.948-9-16.471
			c-3.015,1.642-15.78-4.537-18.826,0.914c-2.905,5.199,8.934,12.841,9.024,16.117c0.084,3.041-11.536,10.502-9.029,15
			c2.782,4.989,15.509-0.836,18.668,0.93C-6.333,18.072-5.555,31.832-0.423,31.897z"/>
		<path style="fill:none;stroke:#000000;stroke-width:0.25;" d="M1.395,31.425c5.242-0.248,5.535-13.911,8.188-15.519
			c2.97-1.8,15.946,3.503,18.727-2.107c2.479-5.001-9.547-11.731-9.727-14.826c-0.198-3.245,10.779-11.634,7.719-16.238
			c-3.048-4.613-15.086,2.136-18.187,0.615C5.145-18.11,3.308-31.786-1.957-31.446c-5.22,0.337-5.258,14.139-7.876,15.787
			c-2.845,1.791-15.731-3.632-18.446,1.784c-2.589,5.21,9.449,12.126,9.705,15.343c0.243,3.054-10.72,11.092-7.894,15.459
			c3.057,4.724,15.163-1.731,18.326-0.175C-5.267,18.167-3.7,31.673,1.395,31.425z"/>
		<path style="fill:none;stroke:#000000;stroke-width:0.25;" d="M3.213,30.952c5.19-0.564,4.674-14.104,7.219-15.885
			c2.796-1.956,15.911,2.559,18.325-3.026c2.174-5.028-10.09-11.02-10.439-14.065c-0.369-3.217,9.988-12.145,6.641-16.562
			C21.63-22.976,10.153-15.6,7.031-16.919C4.052-18.187,1.51-31.62-3.658-30.995c-5.192,0.628-4.484,14.324-7.007,16.148
			c-2.676,1.936-15.699-2.734-18.066,2.653c-2.29,5.213,9.97,11.412,10.386,14.57c0.404,3.067-9.912,11.682-6.758,15.917
			c3.322,4.46,14.819-2.629,17.983-1.28C-4.2,18.259-1.844,31.516,3.213,30.952z"/>
		<path style="fill:none;stroke:#000000;stroke-width:0.25;" d="M5.033,30.479c5.138-0.88,3.813-14.292,6.249-16.25
			c2.623-2.108,15.873,1.611,17.924-3.945C31.072,5.228,18.569-0.023,18.054-3.021c-0.548-3.189,9.205-12.658,5.561-16.885
			c-3.6-4.174-14.526,3.842-17.669,2.718C2.957-18.257-0.29-31.449-5.358-30.543c-5.168,0.924-3.714,14.503-6.14,16.508
			c-2.509,2.073-15.656-1.831-17.687,3.523C-31.165-5.29-18.69,0.187-18.117,3.284c0.57,3.083-9.113,12.276-5.623,16.376
			c3.576,4.201,14.477-3.529,17.641-2.385C-3.129,18.35,0.011,31.356,5.033,30.479z"/>
		<path style="fill:none;stroke:#000000;stroke-width:0.25;" d="M6.851,30.007c5.086-1.197,2.955-14.478,5.28-16.616
			c2.454-2.256,15.833,0.662,17.524-4.864C31.211,3.44,18.468-1.068,17.791-4.018c-0.727-3.161,8.424-13.174,4.481-17.208
			c-3.869-3.959-14.246,4.693-17.41,3.769C1.863-18.332-2.09-31.273-7.059-30.091c-5.141,1.224-2.944,14.678-5.271,16.867
			c-2.344,2.206-15.61-0.925-17.307,4.393c-1.67,5.233,11.023,9.985,11.749,13.023c0.739,3.096-8.322,12.874-4.488,16.834
			c3.821,3.947,14.137-4.432,17.298-3.489C-2.059,18.438,1.867,31.198,6.851,30.007z"/>
		<path style="fill:none;stroke:#000000;stroke-width:0.25;" d="M8.669,29.535c5.034-1.513,2.1-14.66,4.312-16.982
			c2.287-2.401,15.789-0.29,17.123-5.782c1.243-5.119-11.738-8.884-12.578-11.785c-0.907-3.133,7.645-13.691,3.402-17.531
			c-4.137-3.744-13.966,5.543-17.151,4.82C0.771-18.407-3.889-31.094-8.759-29.64c-5.116,1.527-2.179,14.85-4.402,17.229
			c-2.183,2.335-15.563-0.02-16.927,5.262c-1.355,5.245,11.555,9.271,12.429,12.25c0.912,3.109-7.538,13.479-3.352,17.293
			c4.06,3.7,13.799-5.338,16.956-4.594C-0.987,18.522,3.722,31.04,8.669,29.535z"/>
		<path style="fill:none;stroke:#000000;stroke-width:0.25;" d="M10.488,29.063c4.982-1.83,1.247-14.839,3.343-17.348
			c2.123-2.543,15.74-1.241,16.722-6.701c0.927-5.151-12.29-8.172-13.29-11.024c-1.089-3.105,6.867-14.211,2.323-17.855
			c-4.404-3.532-13.684,6.392-16.894,5.871c-3.015-0.489-8.377-12.914-13.151-11.192c-5.088,1.836-1.418,15.018-3.535,17.588
			c-2.027,2.462-15.512,0.888-16.547,6.132C-31.579-0.211-18.449,3.086-17.43,6.008c1.088,3.122-6.761,14.091-2.218,17.751
			c4.293,3.459,13.461-6.248,16.613-5.699C0.085,18.604,5.579,30.881,10.488,29.063z"/>
		<path style="fill:none;stroke:#000000;stroke-width:0.25;" d="M12.307,28.589c4.93-2.146,0.398-15.016,2.372-17.713
			C16.642,8.193,30.367,8.683,31,3.257c0.606-5.184-12.842-7.458-14.002-10.265c-1.272-3.076,6.089-14.731,1.243-18.179
			c-4.668-3.321-13.402,7.234-16.634,6.922C-1.415-18.566-7.48-30.722-12.16-28.735c-5.058,2.147-0.662,15.183-2.666,17.947
			c-1.875,2.586-15.458,1.795-16.167,7.002c-0.718,5.27,12.63,7.837,13.791,10.703c1.269,3.131-5.986,14.712-1.082,18.21
			c4.523,3.226,13.123-7.161,16.271-6.804C1.16,18.682,7.434,30.723,12.307,28.589z"/>
		<path style="fill:none;stroke:#000000;stroke-width:0.25;" d="M14.125,28.117c4.878-2.463-0.446-15.192,1.403-18.08
			C17.336,7.215,31.16,6.894,31.45,1.5c0.28-5.216-13.4-6.742-14.716-9.504c-1.461-3.045,5.317-15.263,0.165-18.503
			c-4.93-3.12-13.122,8.084-16.376,7.974c-3.031-0.109-9.796-11.999-14.384-9.751c-5.025,2.463,0.09,15.347-1.797,18.309
			c-1.726,2.708-15.401,2.701-15.787,7.87c-0.395,5.283,13.171,7.118,14.472,9.93c1.452,3.139-5.216,15.34,0.053,18.668
			c4.751,3,12.785-8.077,15.929-7.909C2.231,18.757,9.29,30.565,14.125,28.117z"/>
		<path style="fill:none;stroke:#000000;stroke-width:0.25;" d="M-31.898-0.424c-0.068,5.294,13.715,6.396,15.153,9.156
			c1.638,3.145-4.446,15.978,1.188,19.127c4.978,2.781,12.444-8.996,15.586-9.014c3.272-0.018,11.115,11.561,15.914,8.799
			c4.826-2.779-1.286-15.367,0.435-18.445c1.654-2.961,15.57-4.094,15.519-9.456c-0.049-5.247-13.95-6.03-15.428-8.744
			c-1.642-3.016,4.537-15.78-0.915-18.826c-5.198-2.906-12.841,8.934-16.117,9.024c-3.041,0.084-10.502-11.537-15-9.029
			c-4.989,2.782,0.836,15.509-0.929,18.668C-18.073-6.333-31.833-5.557-31.898-0.424z"/>
	</g>
</symbol>
<linearGradient id="SVGID_4_" gradientUnits="userSpaceOnUse" x1="-772.7488" y1="-1491.4443" x2="-769.6351" y2="-562.8926" gradientTransform="matrix(0.0045 1 -1.0007 0.0045 -979.4678 1582.8512)">
	<stop  offset="0.3821" style="stop-color:#000000"/>
	<stop  offset="0.4291" style="stop-color:#191919"/>
	<stop  offset="0.591" style="stop-color:#6A6A6A"/>
	<stop  offset="0.7347" style="stop-color:#AAAAAA"/>
	<stop  offset="0.8549" style="stop-color:#D8D8D8"/>
	<stop  offset="0.947" style="stop-color:#F4F4F4"/>
	<stop  offset="1" style="stop-color:#FFFFFF"/>
</linearGradient>
<polygon style="fill:url(#SVGID_4_);stroke:#000000;stroke-miterlimit:10;" points="170.507,1613.118 3.6,1614 -2.471,0.44 
	164.436,-0.441 "/>
<g>
	
		<use xlink:href="#Ruban"  width="64.046" height="64.046" x="-32.023" y="-32.024" transform="matrix(0.0022 0.5918 0.5091 -0.0027 70.6751 185.474)" style="overflow:visible;"/>
	
		<use xlink:href="#Ruban"  width="64.046" height="64.046" x="-32.023" y="-32.024" transform="matrix(0.0022 0.5918 0.5091 -0.0027 37.31 108.2288)" style="overflow:visible;"/>
	
		<use xlink:href="#Ruban"  width="64.046" height="64.046" x="-32.023" y="-32.024" transform="matrix(0.0022 0.5918 0.5091 -0.0027 127.2906 105.7925)" style="overflow:visible;"/>
	
		<use xlink:href="#Ruban"  width="64.046" height="64.046" x="-32.023" y="-32.024" transform="matrix(0.0022 0.5918 0.5091 -0.0027 53.664 175.2903)" style="overflow:visible;"/>
	
		<use xlink:href="#Ruban"  width="64.046" height="64.046" x="-32.023" y="-32.024" transform="matrix(0.0022 0.5918 0.5091 -0.0027 130.763 127.8476)" style="overflow:visible;"/>
	
		<use xlink:href="#Ruban"  width="64.046" height="64.046" x="-32.023" y="-32.024" transform="matrix(0.0022 0.5918 0.5091 -0.0027 103.936 179.4869)" style="overflow:visible;"/>
	
		<use xlink:href="#Ruban"  width="64.046" height="64.046" x="-32.023" y="-32.024" transform="matrix(0.0022 0.5918 0.5091 -0.0027 116.1952 90.6843)" style="overflow:visible;"/>
	
		<use xlink:href="#Ruban"  width="64.046" height="64.046" x="-32.023" y="-32.024" transform="matrix(0.0022 0.5918 0.5091 -0.0027 118.4668 167.4626)" style="overflow:visible;"/>
	
		<use xlink:href="#Ruban"  width="64.046" height="64.046" x="-32.023" y="-32.024" transform="matrix(0.0022 0.5918 0.5091 -0.0027 87.9312 184.6212)" style="overflow:visible;"/>
	
		<use xlink:href="#Ruban"  width="64.046" height="64.046" x="-32.023" y="-32.024" transform="matrix(0.0022 0.5918 0.5091 -0.0027 33.6107 125.9221)" style="overflow:visible;"/>
	
		<use xlink:href="#Ruban"  width="64.046" height="64.046" x="-32.023" y="-32.024" transform="matrix(0.0022 0.5918 0.5091 -0.0027 76.8972 147.8111)" style="overflow:visible;"/>
	
		<use xlink:href="#Ruban"  width="64.046" height="64.046" x="-32.023" y="-32.024" transform="matrix(0.0022 0.5918 0.5091 -0.0027 44.7417 91.7143)" style="overflow:visible;"/>
	
		<use xlink:href="#Ruban"  width="64.046" height="64.046" x="-32.023" y="-32.024" transform="matrix(0.0022 0.5918 0.5091 -0.0027 73.755 93.6842)" style="overflow:visible;"/>
	
		<use xlink:href="#Ruban"  width="64.046" height="64.046" x="-32.023" y="-32.024" transform="matrix(0.0022 0.5918 0.5091 -0.0027 103.688 79.2067)" style="overflow:visible;"/>
	
		<use xlink:href="#Ruban"  width="64.046" height="64.046" x="-32.023" y="-32.024" transform="matrix(0.0022 0.5918 0.5091 -0.0027 128.2006 148.08)" style="overflow:visible;"/>
	
		<use xlink:href="#Ruban"  width="64.046" height="64.046" x="-32.023" y="-32.024" transform="matrix(0.0022 0.5918 0.5091 -0.0027 99.4637 161.2248)" style="overflow:visible;"/>
	
		<use xlink:href="#Ruban"  width="64.046" height="64.046" x="-32.023" y="-32.024" transform="matrix(0.0022 0.5918 0.5091 -0.0027 98.8973 123.445)" style="overflow:visible;"/>
	
		<use xlink:href="#Ruban"  width="64.046" height="64.046" x="-32.023" y="-32.024" transform="matrix(0.0022 0.5918 0.5091 -0.0027 90.8464 92.0759)" style="overflow:visible;"/>
	
		<use xlink:href="#Ruban"  width="64.046" height="64.046" x="-32.023" y="-32.024" transform="matrix(0.0022 0.5918 0.5091 -0.0027 69.8005 167.9789)" style="overflow:visible;"/>
	
		<use xlink:href="#Ruban"  width="64.046" height="64.046" x="-32.023" y="-32.024" transform="matrix(0.0022 0.5918 0.5091 -0.0027 115.8283 116.3709)" style="overflow:visible;"/>
	
		<use xlink:href="#Ruban"  width="64.046" height="64.046" x="-32.023" y="-32.024" transform="matrix(0.0022 0.5918 0.5091 -0.0027 103.8932 103.4446)" style="overflow:visible;"/>
	
		<use xlink:href="#Ruban"  width="64.046" height="64.046" x="-32.023" y="-32.024" transform="matrix(0.0022 0.5918 0.5091 -0.0027 113.7539 133.7904)" style="overflow:visible;"/>
	
		<use xlink:href="#Ruban"  width="64.046" height="64.046" x="-32.023" y="-32.024" transform="matrix(0.0022 0.5918 0.5091 -0.0027 57.009 103.7455)" style="overflow:visible;"/>
	
		<use xlink:href="#Ruban"  width="64.046" height="64.046" x="-32.023" y="-32.024" transform="matrix(0.0022 0.5918 0.5091 -0.0027 94.3535 142.4451)" style="overflow:visible;"/>
	
		<use xlink:href="#Ruban"  width="64.046" height="64.046" x="-32.023" y="-32.024" transform="matrix(0.0022 0.5918 0.5091 -0.0027 58.2313 82.2813)" style="overflow:visible;"/>
	
		<use xlink:href="#Ruban"  width="64.046" height="64.046" x="-32.023" y="-32.024" transform="matrix(0.0022 0.5918 0.5091 -0.0027 87.5301 73.6507)" style="overflow:visible;"/>
	
		<use xlink:href="#Ruban"  width="64.046" height="64.046" x="-32.023" y="-32.024" transform="matrix(0.0022 0.5918 0.5091 -0.0027 86.4857 109.8336)" style="overflow:visible;"/>
	
		<use xlink:href="#Ruban"  width="64.046" height="64.046" x="-32.023" y="-32.024" transform="matrix(0.0022 0.5918 0.5091 -0.0027 70.1809 113.4293)" style="overflow:visible;"/>
	
		<use xlink:href="#Ruban"  width="64.046" height="64.046" x="-32.023" y="-32.024" transform="matrix(0.0022 0.5918 0.5091 -0.0027 65.3697 132.3879)" style="overflow:visible;"/>
	
		<use xlink:href="#Ruban"  width="64.046" height="64.046" x="-32.023" y="-32.024" transform="matrix(0.0022 0.5918 0.5091 -0.0027 34.437 144.5781)" style="overflow:visible;"/>
	
		<use xlink:href="#Ruban"  width="64.046" height="64.046" x="-32.023" y="-32.024" transform="matrix(0.0022 0.5918 0.5091 -0.0027 42.4863 161.3993)" style="overflow:visible;"/>
	
		<use xlink:href="#Ruban"  width="64.046" height="64.046" x="-32.023" y="-32.024" transform="matrix(0.0022 0.5918 0.5091 -0.0027 49.9713 140.7425)" style="overflow:visible;"/>
	
		<use xlink:href="#Ruban"  width="64.046" height="64.046" x="-32.023" y="-32.024" transform="matrix(0.0022 0.5918 0.5091 -0.0027 59.9164 154.4341)" style="overflow:visible;"/>
	
		<use xlink:href="#Ruban"  width="64.046" height="64.046" x="-32.023" y="-32.024" transform="matrix(0.0022 0.5918 0.5091 -0.0027 50.7245 121.5327)" style="overflow:visible;"/>
	
		<use xlink:href="#Ruban"  width="64.046" height="64.046" x="-32.023" y="-32.024" transform="matrix(0.0022 0.5918 0.5091 -0.0027 111.7526 150.4176)" style="overflow:visible;"/>
	
		<use xlink:href="#Ruban"  width="64.046" height="64.046" x="-32.023" y="-32.024" transform="matrix(0.0022 0.5918 0.5091 -0.0027 71.8882 74.073)" style="overflow:visible;"/>
	
		<use xlink:href="#Ruban"  width="64.046" height="64.046" x="-32.023" y="-32.024" transform="matrix(0.0022 0.5918 0.5091 -0.0027 85.1613 164.9936)" style="overflow:visible;"/>
	
		<use xlink:href="#Ruban"  width="64.046" height="64.046" x="-32.023" y="-32.024" transform="matrix(0.0022 0.5918 0.5091 -0.0027 82.0737 128.9312)" style="overflow:visible;"/>
	
		<use xlink:href="#Orange_lumineux_2"  width="26.213" height="26.212" x="-13.106" y="-13.106" transform="matrix(0.0022 0.5918 0.5091 -0.0027 15.1773 239.2296)" style="overflow:visible;"/>
	
		<use xlink:href="#Orange_lumineux_2"  width="26.213" height="26.212" x="-13.106" y="-13.106" transform="matrix(0.0022 0.5918 0.5091 -0.0027 145.1513 239.4613)" style="overflow:visible;"/>
	
		<use xlink:href="#Orange_lumineux_2"  width="26.213" height="26.212" x="-13.106" y="-13.106" transform="matrix(0.0022 0.5918 0.5091 -0.0027 144.3868 18.1801)" style="overflow:visible;"/>
	
		<use xlink:href="#Orange_lumineux_2"  width="26.213" height="26.212" x="-13.106" y="-13.106" transform="matrix(0.0022 0.5918 0.5091 -0.0027 13.8814 18.4845)" style="overflow:visible;"/>
</g>
<g>
	
		<use xlink:href="#Ruban"  width="64.046" height="64.046" x="-32.023" y="-32.024" transform="matrix(0.0022 0.5918 0.5091 -0.0027 75.5963 1525.4663)" style="overflow:visible;"/>
	
		<use xlink:href="#Ruban"  width="64.046" height="64.046" x="-32.023" y="-32.024" transform="matrix(0.0022 0.5918 0.5091 -0.0027 42.2312 1448.2212)" style="overflow:visible;"/>
	
		<use xlink:href="#Ruban"  width="64.046" height="64.046" x="-32.023" y="-32.024" transform="matrix(0.0022 0.5918 0.5091 -0.0027 132.2118 1445.7848)" style="overflow:visible;"/>
	
		<use xlink:href="#Ruban"  width="64.046" height="64.046" x="-32.023" y="-32.024" transform="matrix(0.0022 0.5918 0.5091 -0.0027 58.5852 1515.2826)" style="overflow:visible;"/>
	
		<use xlink:href="#Ruban"  width="64.046" height="64.046" x="-32.023" y="-32.024" transform="matrix(0.0022 0.5918 0.5091 -0.0027 135.6843 1467.84)" style="overflow:visible;"/>
	
		<use xlink:href="#Ruban"  width="64.046" height="64.046" x="-32.023" y="-32.024" transform="matrix(0.0022 0.5918 0.5091 -0.0027 108.8572 1519.4792)" style="overflow:visible;"/>
	
		<use xlink:href="#Ruban"  width="64.046" height="64.046" x="-32.023" y="-32.024" transform="matrix(0.0022 0.5918 0.5091 -0.0027 121.1164 1430.6766)" style="overflow:visible;"/>
	
		<use xlink:href="#Ruban"  width="64.046" height="64.046" x="-32.023" y="-32.024" transform="matrix(0.0022 0.5918 0.5091 -0.0027 123.388 1507.455)" style="overflow:visible;"/>
	
		<use xlink:href="#Ruban"  width="64.046" height="64.046" x="-32.023" y="-32.024" transform="matrix(0.0022 0.5918 0.5091 -0.0027 92.8524 1524.6135)" style="overflow:visible;"/>
	
		<use xlink:href="#Ruban"  width="64.046" height="64.046" x="-32.023" y="-32.024" transform="matrix(0.0022 0.5918 0.5091 -0.0027 38.5319 1465.9144)" style="overflow:visible;"/>
	
		<use xlink:href="#Ruban"  width="64.046" height="64.046" x="-32.023" y="-32.024" transform="matrix(0.0022 0.5918 0.5091 -0.0027 81.8185 1487.8035)" style="overflow:visible;"/>
	
		<use xlink:href="#Ruban"  width="64.046" height="64.046" x="-32.023" y="-32.024" transform="matrix(0.0022 0.5918 0.5091 -0.0027 49.663 1431.7067)" style="overflow:visible;"/>
	
		<use xlink:href="#Ruban"  width="64.046" height="64.046" x="-32.023" y="-32.024" transform="matrix(0.0022 0.5918 0.5091 -0.0027 78.6762 1433.6765)" style="overflow:visible;"/>
	
		<use xlink:href="#Ruban"  width="64.046" height="64.046" x="-32.023" y="-32.024" transform="matrix(0.0022 0.5918 0.5091 -0.0027 108.6092 1419.199)" style="overflow:visible;"/>
	
		<use xlink:href="#Ruban"  width="64.046" height="64.046" x="-32.023" y="-32.024" transform="matrix(0.0022 0.5918 0.5091 -0.0027 133.1219 1488.0724)" style="overflow:visible;"/>
	
		<use xlink:href="#Ruban"  width="64.046" height="64.046" x="-32.023" y="-32.024" transform="matrix(0.0022 0.5918 0.5091 -0.0027 104.385 1501.217)" style="overflow:visible;"/>
	
		<use xlink:href="#Ruban"  width="64.046" height="64.046" x="-32.023" y="-32.024" transform="matrix(0.0022 0.5918 0.5091 -0.0027 103.8185 1463.4374)" style="overflow:visible;"/>
	
		<use xlink:href="#Ruban"  width="64.046" height="64.046" x="-32.023" y="-32.024" transform="matrix(0.0022 0.5918 0.5091 -0.0027 95.7676 1432.0682)" style="overflow:visible;"/>
	
		<use xlink:href="#Ruban"  width="64.046" height="64.046" x="-32.023" y="-32.024" transform="matrix(0.0022 0.5918 0.5091 -0.0027 74.7218 1507.9712)" style="overflow:visible;"/>
	
		<use xlink:href="#Ruban"  width="64.046" height="64.046" x="-32.023" y="-32.024" transform="matrix(0.0022 0.5918 0.5091 -0.0027 120.7496 1456.3633)" style="overflow:visible;"/>
	
		<use xlink:href="#Ruban"  width="64.046" height="64.046" x="-32.023" y="-32.024" transform="matrix(0.0022 0.5918 0.5091 -0.0027 108.8144 1443.437)" style="overflow:visible;"/>
	
		<use xlink:href="#Ruban"  width="64.046" height="64.046" x="-32.023" y="-32.024" transform="matrix(0.0022 0.5918 0.5091 -0.0027 118.6751 1473.7827)" style="overflow:visible;"/>
	
		<use xlink:href="#Ruban"  width="64.046" height="64.046" x="-32.023" y="-32.024" transform="matrix(0.0022 0.5918 0.5091 -0.0027 61.9302 1443.7378)" style="overflow:visible;"/>
	
		<use xlink:href="#Ruban"  width="64.046" height="64.046" x="-32.023" y="-32.024" transform="matrix(0.0022 0.5918 0.5091 -0.0027 99.2747 1482.4374)" style="overflow:visible;"/>
	
		<use xlink:href="#Ruban"  width="64.046" height="64.046" x="-32.023" y="-32.024" transform="matrix(0.0022 0.5918 0.5091 -0.0027 63.1525 1422.2737)" style="overflow:visible;"/>
	
		<use xlink:href="#Ruban"  width="64.046" height="64.046" x="-32.023" y="-32.024" transform="matrix(0.0022 0.5918 0.5091 -0.0027 92.4513 1413.6429)" style="overflow:visible;"/>
	
		<use xlink:href="#Ruban"  width="64.046" height="64.046" x="-32.023" y="-32.024" transform="matrix(0.0022 0.5918 0.5091 -0.0027 91.4069 1449.8259)" style="overflow:visible;"/>
	
		<use xlink:href="#Ruban"  width="64.046" height="64.046" x="-32.023" y="-32.024" transform="matrix(0.0022 0.5918 0.5091 -0.0027 75.1021 1453.4216)" style="overflow:visible;"/>
	
		<use xlink:href="#Ruban"  width="64.046" height="64.046" x="-32.023" y="-32.024" transform="matrix(0.0022 0.5918 0.5091 -0.0027 70.2909 1472.3802)" style="overflow:visible;"/>
	
		<use xlink:href="#Ruban"  width="64.046" height="64.046" x="-32.023" y="-32.024" transform="matrix(0.0022 0.5918 0.5091 -0.0027 39.3582 1484.5704)" style="overflow:visible;"/>
	
		<use xlink:href="#Ruban"  width="64.046" height="64.046" x="-32.023" y="-32.024" transform="matrix(0.0022 0.5918 0.5091 -0.0027 47.4075 1501.3916)" style="overflow:visible;"/>
	
		<use xlink:href="#Ruban"  width="64.046" height="64.046" x="-32.023" y="-32.024" transform="matrix(0.0022 0.5918 0.5091 -0.0027 54.8925 1480.7349)" style="overflow:visible;"/>
	
		<use xlink:href="#Ruban"  width="64.046" height="64.046" x="-32.023" y="-32.024" transform="matrix(0.0022 0.5918 0.5091 -0.0027 64.8376 1494.4264)" style="overflow:visible;"/>
	
		<use xlink:href="#Ruban"  width="64.046" height="64.046" x="-32.023" y="-32.024" transform="matrix(0.0022 0.5918 0.5091 -0.0027 55.6457 1461.525)" style="overflow:visible;"/>
	
		<use xlink:href="#Ruban"  width="64.046" height="64.046" x="-32.023" y="-32.024" transform="matrix(0.0022 0.5918 0.5091 -0.0027 116.6739 1490.4099)" style="overflow:visible;"/>
	
		<use xlink:href="#Ruban"  width="64.046" height="64.046" x="-32.023" y="-32.024" transform="matrix(0.0022 0.5918 0.5091 -0.0027 76.8095 1414.0653)" style="overflow:visible;"/>
	
		<use xlink:href="#Ruban"  width="64.046" height="64.046" x="-32.023" y="-32.024" transform="matrix(0.0022 0.5918 0.5091 -0.0027 90.0825 1504.986)" style="overflow:visible;"/>
	
		<use xlink:href="#Ruban"  width="64.046" height="64.046" x="-32.023" y="-32.024" transform="matrix(0.0022 0.5918 0.5091 -0.0027 86.9949 1468.9235)" style="overflow:visible;"/>
	
		<use xlink:href="#Orange_lumineux_2"  width="26.213" height="26.212" x="-13.106" y="-13.106" transform="matrix(0.0022 0.5918 0.5091 -0.0027 20.0986 1579.2219)" style="overflow:visible;"/>
	
		<use xlink:href="#Orange_lumineux_2"  width="26.213" height="26.212" x="-13.106" y="-13.106" transform="matrix(0.0022 0.5918 0.5091 -0.0027 150.0725 1579.4536)" style="overflow:visible;"/>
	
		<use xlink:href="#Orange_lumineux_2"  width="26.213" height="26.212" x="-13.106" y="-13.106" transform="matrix(0.0022 0.5918 0.5091 -0.0027 149.308 1358.1724)" style="overflow:visible;"/>
	
		<use xlink:href="#Orange_lumineux_2"  width="26.213" height="26.212" x="-13.106" y="-13.106" transform="matrix(0.0022 0.5918 0.5091 -0.0027 18.8026 1358.4768)" style="overflow:visible;"/>
</g>
</svg>
